<mxfile host="Electron" agent="Mozilla/5.0 (Windows NT 10.0; Win64; x64) AppleWebKit/537.36 (KHTML, like Gecko) draw.io/26.0.9 Chrome/128.0.6613.186 Electron/32.2.5 Safari/537.36" version="26.0.9">
  <diagram name="Page-1" id="wkzCJaQbt-ogD7XBxhPM">
    <mxGraphModel dx="1050" dy="621" grid="1" gridSize="10" guides="1" tooltips="1" connect="1" arrows="1" fold="1" page="1" pageScale="1" pageWidth="850" pageHeight="1100" math="0" shadow="0">
      <root>
        <mxCell id="0" />
        <mxCell id="1" parent="0" />
        <mxCell id="FIx-FIzNj0R35fdoIjGO-1" value="" style="rounded=0;whiteSpace=wrap;html=1;dashed=1;" parent="1" vertex="1">
          <mxGeometry x="80" y="90" width="120" height="390" as="geometry" />
        </mxCell>
        <mxCell id="FIx-FIzNj0R35fdoIjGO-2" value="" style="rounded=1;whiteSpace=wrap;html=1;fillColor=none;strokeColor=#d79b00;fillStyle=hatch;" parent="1" vertex="1">
          <mxGeometry x="280" y="120" width="120" height="360" as="geometry" />
        </mxCell>
        <mxCell id="FIx-FIzNj0R35fdoIjGO-3" value="&lt;b&gt;&lt;font style=&quot;font-size: 15px;&quot; face=&quot;Times New Roman&quot;&gt;Bronze&lt;/font&gt;&lt;/b&gt;" style="rounded=1;whiteSpace=wrap;html=1;fillColor=#fff2cc;strokeColor=#d6b656;" parent="1" vertex="1">
          <mxGeometry x="280" y="80" width="120" height="30" as="geometry" />
        </mxCell>
        <mxCell id="FIx-FIzNj0R35fdoIjGO-18" style="edgeStyle=orthogonalEdgeStyle;rounded=0;orthogonalLoop=1;jettySize=auto;html=1;entryX=0;entryY=0.5;entryDx=0;entryDy=0;" parent="1" source="FIx-FIzNj0R35fdoIjGO-4" target="FIx-FIzNj0R35fdoIjGO-9" edge="1">
          <mxGeometry relative="1" as="geometry" />
        </mxCell>
        <mxCell id="FIx-FIzNj0R35fdoIjGO-4" value="" style="image;aspect=fixed;html=1;points=[];align=center;fontSize=12;image=img/lib/azure2/general/Folder_Blank.svg;" parent="1" vertex="1">
          <mxGeometry x="115.35" y="200" width="49.3" height="40" as="geometry" />
        </mxCell>
        <mxCell id="FIx-FIzNj0R35fdoIjGO-22" style="edgeStyle=orthogonalEdgeStyle;rounded=0;orthogonalLoop=1;jettySize=auto;html=1;entryX=0;entryY=0.25;entryDx=0;entryDy=0;" parent="1" source="FIx-FIzNj0R35fdoIjGO-5" target="FIx-FIzNj0R35fdoIjGO-14" edge="1">
          <mxGeometry relative="1" as="geometry" />
        </mxCell>
        <mxCell id="FIx-FIzNj0R35fdoIjGO-5" value="" style="image;aspect=fixed;html=1;points=[];align=center;fontSize=12;image=img/lib/azure2/general/Folder_Blank.svg;" parent="1" vertex="1">
          <mxGeometry x="115.36" y="350" width="49.29" height="40" as="geometry" />
        </mxCell>
        <mxCell id="FIx-FIzNj0R35fdoIjGO-6" value="&lt;font style=&quot;font-size: 13px;&quot; face=&quot;Times New Roman&quot;&gt;&lt;b&gt;CRM&lt;/b&gt;&lt;/font&gt;" style="text;html=1;align=center;verticalAlign=middle;whiteSpace=wrap;rounded=0;" parent="1" vertex="1">
          <mxGeometry x="110.00000000000001" y="240" width="60" height="30" as="geometry" />
        </mxCell>
        <mxCell id="FIx-FIzNj0R35fdoIjGO-7" value="&lt;font style=&quot;font-size: 13px;&quot; face=&quot;Times New Roman&quot;&gt;&lt;b&gt;ERP&lt;/b&gt;&lt;/font&gt;" style="text;html=1;align=center;verticalAlign=middle;whiteSpace=wrap;rounded=0;" parent="1" vertex="1">
          <mxGeometry x="110.00000000000001" y="390" width="60" height="30" as="geometry" />
        </mxCell>
        <mxCell id="HDhZnRW0lBU2ojHHwfQD-12" style="edgeStyle=orthogonalEdgeStyle;rounded=0;orthogonalLoop=1;jettySize=auto;html=1;exitX=1;exitY=0.5;exitDx=0;exitDy=0;entryX=0;entryY=0.5;entryDx=0;entryDy=0;" edge="1" parent="1" source="FIx-FIzNj0R35fdoIjGO-8" target="HDhZnRW0lBU2ojHHwfQD-3">
          <mxGeometry relative="1" as="geometry" />
        </mxCell>
        <mxCell id="FIx-FIzNj0R35fdoIjGO-8" value="&lt;b&gt;crm_cust_info&lt;/b&gt;" style="rounded=1;whiteSpace=wrap;html=1;fillColor=#ffe6cc;strokeColor=#d79b00;" parent="1" vertex="1">
          <mxGeometry x="280" y="170" width="120" height="30" as="geometry" />
        </mxCell>
        <mxCell id="HDhZnRW0lBU2ojHHwfQD-13" style="edgeStyle=orthogonalEdgeStyle;rounded=0;orthogonalLoop=1;jettySize=auto;html=1;exitX=1;exitY=0.5;exitDx=0;exitDy=0;entryX=0;entryY=0.5;entryDx=0;entryDy=0;" edge="1" parent="1" source="FIx-FIzNj0R35fdoIjGO-9" target="HDhZnRW0lBU2ojHHwfQD-4">
          <mxGeometry relative="1" as="geometry" />
        </mxCell>
        <mxCell id="FIx-FIzNj0R35fdoIjGO-9" value="&lt;b&gt;crm_prod_info&lt;/b&gt;" style="rounded=1;whiteSpace=wrap;html=1;fillColor=#ffe6cc;strokeColor=#d79b00;" parent="1" vertex="1">
          <mxGeometry x="280" y="210" width="120" height="30" as="geometry" />
        </mxCell>
        <mxCell id="HDhZnRW0lBU2ojHHwfQD-14" style="edgeStyle=orthogonalEdgeStyle;rounded=0;orthogonalLoop=1;jettySize=auto;html=1;exitX=1;exitY=0.5;exitDx=0;exitDy=0;entryX=0;entryY=0.5;entryDx=0;entryDy=0;" edge="1" parent="1" source="FIx-FIzNj0R35fdoIjGO-10" target="HDhZnRW0lBU2ojHHwfQD-5">
          <mxGeometry relative="1" as="geometry" />
        </mxCell>
        <mxCell id="FIx-FIzNj0R35fdoIjGO-10" value="&lt;b&gt;crm_sales_details&lt;/b&gt;" style="rounded=1;whiteSpace=wrap;html=1;fillColor=#ffe6cc;strokeColor=#d79b00;" parent="1" vertex="1">
          <mxGeometry x="280" y="250" width="120" height="30" as="geometry" />
        </mxCell>
        <mxCell id="HDhZnRW0lBU2ojHHwfQD-15" style="edgeStyle=orthogonalEdgeStyle;rounded=0;orthogonalLoop=1;jettySize=auto;html=1;entryX=0;entryY=0.5;entryDx=0;entryDy=0;" edge="1" parent="1" source="FIx-FIzNj0R35fdoIjGO-11" target="HDhZnRW0lBU2ojHHwfQD-7">
          <mxGeometry relative="1" as="geometry" />
        </mxCell>
        <mxCell id="FIx-FIzNj0R35fdoIjGO-11" value="&lt;b&gt;erp_cus_az12&lt;/b&gt;" style="rounded=1;whiteSpace=wrap;html=1;fillColor=#ffe6cc;strokeColor=#d79b00;" parent="1" vertex="1">
          <mxGeometry x="280" y="325" width="120" height="30" as="geometry" />
        </mxCell>
        <mxCell id="HDhZnRW0lBU2ojHHwfQD-17" style="edgeStyle=orthogonalEdgeStyle;rounded=0;orthogonalLoop=1;jettySize=auto;html=1;entryX=0;entryY=0.5;entryDx=0;entryDy=0;" edge="1" parent="1" source="FIx-FIzNj0R35fdoIjGO-13" target="HDhZnRW0lBU2ojHHwfQD-8">
          <mxGeometry relative="1" as="geometry" />
        </mxCell>
        <mxCell id="FIx-FIzNj0R35fdoIjGO-13" value="&lt;b&gt;erp_loc_a101&lt;/b&gt;" style="rounded=1;whiteSpace=wrap;html=1;fillColor=#ffe6cc;strokeColor=#d79b00;" parent="1" vertex="1">
          <mxGeometry x="280" y="360" width="120" height="30" as="geometry" />
        </mxCell>
        <mxCell id="HDhZnRW0lBU2ojHHwfQD-18" value="" style="edgeStyle=orthogonalEdgeStyle;rounded=0;orthogonalLoop=1;jettySize=auto;html=1;" edge="1" parent="1" source="FIx-FIzNj0R35fdoIjGO-14" target="HDhZnRW0lBU2ojHHwfQD-9">
          <mxGeometry relative="1" as="geometry" />
        </mxCell>
        <mxCell id="FIx-FIzNj0R35fdoIjGO-14" value="&lt;b&gt;erp_px_cat_g1v2&lt;/b&gt;" style="rounded=1;whiteSpace=wrap;html=1;fillColor=#ffe6cc;strokeColor=#d79b00;" parent="1" vertex="1">
          <mxGeometry x="280" y="400" width="120" height="30" as="geometry" />
        </mxCell>
        <mxCell id="FIx-FIzNj0R35fdoIjGO-15" style="edgeStyle=orthogonalEdgeStyle;rounded=0;orthogonalLoop=1;jettySize=auto;html=1;entryX=-0.023;entryY=0.152;entryDx=0;entryDy=0;entryPerimeter=0;" parent="1" source="FIx-FIzNj0R35fdoIjGO-4" target="FIx-FIzNj0R35fdoIjGO-2" edge="1">
          <mxGeometry relative="1" as="geometry" />
        </mxCell>
        <mxCell id="FIx-FIzNj0R35fdoIjGO-16" style="edgeStyle=orthogonalEdgeStyle;rounded=0;orthogonalLoop=1;jettySize=auto;html=1;entryX=0.03;entryY=0.39;entryDx=0;entryDy=0;entryPerimeter=0;" parent="1" source="FIx-FIzNj0R35fdoIjGO-4" target="FIx-FIzNj0R35fdoIjGO-2" edge="1">
          <mxGeometry relative="1" as="geometry" />
        </mxCell>
        <mxCell id="FIx-FIzNj0R35fdoIjGO-20" style="edgeStyle=orthogonalEdgeStyle;rounded=0;orthogonalLoop=1;jettySize=auto;html=1;" parent="1" source="FIx-FIzNj0R35fdoIjGO-5" edge="1">
          <mxGeometry relative="1" as="geometry">
            <mxPoint x="280" y="370" as="targetPoint" />
          </mxGeometry>
        </mxCell>
        <mxCell id="FIx-FIzNj0R35fdoIjGO-21" style="edgeStyle=orthogonalEdgeStyle;rounded=0;orthogonalLoop=1;jettySize=auto;html=1;entryX=0.03;entryY=0.591;entryDx=0;entryDy=0;entryPerimeter=0;" parent="1" source="FIx-FIzNj0R35fdoIjGO-5" target="FIx-FIzNj0R35fdoIjGO-2" edge="1">
          <mxGeometry relative="1" as="geometry" />
        </mxCell>
        <mxCell id="FIx-FIzNj0R35fdoIjGO-27" value="&lt;b&gt;&lt;font style=&quot;font-size: 15px;&quot; face=&quot;Times New Roman&quot;&gt;&lt;u&gt;Source&lt;/u&gt;&lt;/font&gt;&lt;/b&gt;" style="rounded=0;whiteSpace=wrap;html=1;dashed=1;fillColor=default;strokeColor=none;" parent="1" vertex="1">
          <mxGeometry x="95" y="70" width="90" height="30" as="geometry" />
        </mxCell>
        <mxCell id="HDhZnRW0lBU2ojHHwfQD-2" value="" style="rounded=1;whiteSpace=wrap;html=1;fillColor=#f5f5f5;strokeColor=#666666;fillStyle=hatch;fontColor=#333333;" vertex="1" parent="1">
          <mxGeometry x="460" y="120" width="120" height="360" as="geometry" />
        </mxCell>
        <mxCell id="HDhZnRW0lBU2ojHHwfQD-3" value="&lt;b&gt;crm_cust_info&lt;/b&gt;" style="rounded=1;whiteSpace=wrap;html=1;fillColor=#f5f5f5;strokeColor=#666666;fontColor=#333333;" vertex="1" parent="1">
          <mxGeometry x="460" y="170" width="120" height="30" as="geometry" />
        </mxCell>
        <mxCell id="HDhZnRW0lBU2ojHHwfQD-4" value="&lt;b&gt;crm_prod_info&lt;/b&gt;" style="rounded=1;whiteSpace=wrap;html=1;fillColor=#f5f5f5;strokeColor=#666666;fontColor=#333333;" vertex="1" parent="1">
          <mxGeometry x="460" y="210" width="120" height="30" as="geometry" />
        </mxCell>
        <mxCell id="HDhZnRW0lBU2ojHHwfQD-5" value="&lt;b&gt;crm_sales_details&lt;/b&gt;" style="rounded=1;whiteSpace=wrap;html=1;fillColor=#f5f5f5;strokeColor=#666666;fontColor=#333333;" vertex="1" parent="1">
          <mxGeometry x="460" y="250" width="120" height="30" as="geometry" />
        </mxCell>
        <mxCell id="HDhZnRW0lBU2ojHHwfQD-7" value="&lt;b&gt;erp_cus_az12&lt;/b&gt;" style="rounded=1;whiteSpace=wrap;html=1;fillColor=#f5f5f5;strokeColor=#666666;fontColor=#333333;" vertex="1" parent="1">
          <mxGeometry x="460" y="325" width="120" height="30" as="geometry" />
        </mxCell>
        <mxCell id="HDhZnRW0lBU2ojHHwfQD-8" value="&lt;b&gt;erp_loc_a101&lt;/b&gt;" style="rounded=1;whiteSpace=wrap;html=1;fillColor=#f5f5f5;strokeColor=#666666;fontColor=#333333;" vertex="1" parent="1">
          <mxGeometry x="460" y="360" width="120" height="30" as="geometry" />
        </mxCell>
        <mxCell id="HDhZnRW0lBU2ojHHwfQD-9" value="&lt;b&gt;erp_px_cat_g1v2&lt;/b&gt;" style="rounded=1;whiteSpace=wrap;html=1;fillColor=#f5f5f5;strokeColor=#666666;fontColor=#333333;" vertex="1" parent="1">
          <mxGeometry x="460" y="400" width="120" height="30" as="geometry" />
        </mxCell>
        <mxCell id="HDhZnRW0lBU2ojHHwfQD-10" value="&lt;b&gt;&lt;font style=&quot;font-size: 15px;&quot; face=&quot;Times New Roman&quot;&gt;Silver&lt;/font&gt;&lt;/b&gt;" style="rounded=1;whiteSpace=wrap;html=1;fillColor=#f5f5f5;strokeColor=#666666;fontColor=#333333;" vertex="1" parent="1">
          <mxGeometry x="460" y="80" width="120" height="30" as="geometry" />
        </mxCell>
        <mxCell id="HDhZnRW0lBU2ojHHwfQD-19" value="" style="rounded=1;whiteSpace=wrap;html=1;fillColor=#e3c800;strokeColor=#B09500;fillStyle=hatch;fontColor=#000000;" vertex="1" parent="1">
          <mxGeometry x="650" y="120" width="120" height="360" as="geometry" />
        </mxCell>
        <mxCell id="HDhZnRW0lBU2ojHHwfQD-20" value="&lt;b&gt;Fact_sales&lt;/b&gt;" style="rounded=1;whiteSpace=wrap;html=1;fillColor=#e3c800;strokeColor=#B09500;fontColor=#000000;" vertex="1" parent="1">
          <mxGeometry x="650" y="230" width="120" height="30" as="geometry" />
        </mxCell>
        <mxCell id="HDhZnRW0lBU2ojHHwfQD-21" value="&lt;b&gt;dim_customers&lt;/b&gt;" style="rounded=1;whiteSpace=wrap;html=1;fillColor=#e3c800;strokeColor=#B09500;fontColor=#000000;" vertex="1" parent="1">
          <mxGeometry x="650" y="285" width="120" height="30" as="geometry" />
        </mxCell>
        <mxCell id="HDhZnRW0lBU2ojHHwfQD-22" value="&lt;b&gt;dim_products&lt;/b&gt;" style="rounded=1;whiteSpace=wrap;html=1;fillColor=#e3c800;strokeColor=#B09500;fontColor=#000000;" vertex="1" parent="1">
          <mxGeometry x="650" y="340" width="120" height="30" as="geometry" />
        </mxCell>
        <mxCell id="HDhZnRW0lBU2ojHHwfQD-23" value="&lt;b&gt;&lt;font style=&quot;font-size: 15px;&quot; face=&quot;Times New Roman&quot;&gt;Gold&lt;/font&gt;&lt;/b&gt;" style="rounded=1;whiteSpace=wrap;html=1;fillColor=#e3c800;strokeColor=#B09500;fontColor=#000000;" vertex="1" parent="1">
          <mxGeometry x="650" y="80" width="120" height="30" as="geometry" />
        </mxCell>
        <mxCell id="HDhZnRW0lBU2ojHHwfQD-25" value="" style="endArrow=classic;html=1;rounded=0;exitX=1;exitY=0.5;exitDx=0;exitDy=0;entryX=0;entryY=0.5;entryDx=0;entryDy=0;jumpStyle=gap;jumpSize=2;" edge="1" parent="1" source="HDhZnRW0lBU2ojHHwfQD-5" target="HDhZnRW0lBU2ojHHwfQD-20">
          <mxGeometry width="50" height="50" relative="1" as="geometry">
            <mxPoint x="570" y="290" as="sourcePoint" />
            <mxPoint x="620" y="240" as="targetPoint" />
          </mxGeometry>
        </mxCell>
        <mxCell id="HDhZnRW0lBU2ojHHwfQD-26" value="" style="endArrow=classic;html=1;rounded=0;entryX=0;entryY=0.5;entryDx=0;entryDy=0;exitX=1.01;exitY=0.216;exitDx=0;exitDy=0;exitPerimeter=0;jumpStyle=gap;jumpSize=2;" edge="1" parent="1" source="HDhZnRW0lBU2ojHHwfQD-2" target="HDhZnRW0lBU2ojHHwfQD-21">
          <mxGeometry width="50" height="50" relative="1" as="geometry">
            <mxPoint x="590" y="290" as="sourcePoint" />
            <mxPoint x="610" y="270" as="targetPoint" />
          </mxGeometry>
        </mxCell>
        <mxCell id="HDhZnRW0lBU2ojHHwfQD-28" value="" style="endArrow=classic;html=1;rounded=0;exitX=1;exitY=0.5;exitDx=0;exitDy=0;entryX=0;entryY=0.5;entryDx=0;entryDy=0;jumpStyle=gap;jumpSize=2;" edge="1" parent="1" source="HDhZnRW0lBU2ojHHwfQD-7" target="HDhZnRW0lBU2ojHHwfQD-21">
          <mxGeometry width="50" height="50" relative="1" as="geometry">
            <mxPoint x="560" y="325" as="sourcePoint" />
            <mxPoint x="620" y="300" as="targetPoint" />
          </mxGeometry>
        </mxCell>
        <mxCell id="HDhZnRW0lBU2ojHHwfQD-29" value="" style="endArrow=classic;html=1;rounded=0;exitX=1;exitY=0.5;exitDx=0;exitDy=0;entryX=0;entryY=0.75;entryDx=0;entryDy=0;jumpStyle=gap;jumpSize=2;" edge="1" parent="1" source="HDhZnRW0lBU2ojHHwfQD-8" target="HDhZnRW0lBU2ojHHwfQD-21">
          <mxGeometry width="50" height="50" relative="1" as="geometry">
            <mxPoint x="560" y="360" as="sourcePoint" />
            <mxPoint x="620" y="335" as="targetPoint" />
          </mxGeometry>
        </mxCell>
        <mxCell id="HDhZnRW0lBU2ojHHwfQD-30" value="" style="endArrow=classic;html=1;rounded=0;exitX=1;exitY=0.5;exitDx=0;exitDy=0;entryX=0;entryY=0.5;entryDx=0;entryDy=0;jumpStyle=gap;jumpSize=2;" edge="1" parent="1" source="HDhZnRW0lBU2ojHHwfQD-4" target="HDhZnRW0lBU2ojHHwfQD-22">
          <mxGeometry width="50" height="50" relative="1" as="geometry">
            <mxPoint x="590" y="295" as="sourcePoint" />
            <mxPoint x="650" y="270" as="targetPoint" />
          </mxGeometry>
        </mxCell>
        <mxCell id="HDhZnRW0lBU2ojHHwfQD-31" value="" style="endArrow=classic;html=1;rounded=0;exitX=1;exitY=0.25;exitDx=0;exitDy=0;entryX=0;entryY=0.5;entryDx=0;entryDy=0;jumpStyle=gap;jumpSize=2;" edge="1" parent="1" source="HDhZnRW0lBU2ojHHwfQD-9" target="HDhZnRW0lBU2ojHHwfQD-22">
          <mxGeometry width="50" height="50" relative="1" as="geometry">
            <mxPoint x="600" y="305" as="sourcePoint" />
            <mxPoint x="660" y="280" as="targetPoint" />
          </mxGeometry>
        </mxCell>
        <mxCell id="HDhZnRW0lBU2ojHHwfQD-34" value="&lt;font style=&quot;font-size: 18px;&quot;&gt;&lt;i&gt;&lt;b&gt;&lt;u&gt;Data Flow Diagram&lt;/u&gt;&lt;/b&gt;&lt;/i&gt;&lt;/font&gt;" style="text;html=1;align=center;verticalAlign=middle;whiteSpace=wrap;rounded=0;" vertex="1" parent="1">
          <mxGeometry x="115.36" y="20" width="265" height="30" as="geometry" />
        </mxCell>
      </root>
    </mxGraphModel>
  </diagram>
</mxfile>
